<?xml version="1.0" encoding="UTF-8" standalone="no"?><svg xmlns="http://www.w3.org/2000/svg" xmlns:xlink="http://www.w3.org/1999/xlink" contentStyleType="text/css" height="880px" preserveAspectRatio="none" style="width:837px;height:880px;background:#FFFFFF;" version="1.1" viewBox="0 0 837 880" width="837px" zoomAndPan="magnify"><defs/><g><ellipse cx="126.5" cy="50.0957" fill="#222222" rx="10" ry="10" style="stroke:#222222;stroke-width:1.0;"/><rect fill="#F1F1F1" height="35.0938" rx="12.5" ry="12.5" style="stroke:#181818;stroke-width:0.5;" width="187" x="33" y="80.0957"/><text fill="#000000" font-family="sans-serif" font-size="12" lengthAdjust="spacing" textLength="161" x="46" y="102.5527">request maturity assessment</text><rect fill="#F1F1F1" height="50.1875" rx="12.5" ry="12.5" style="stroke:#181818;stroke-width:0.5;" width="138" x="57.5" y="290.6582"/><text fill="#000000" font-family="sans-serif" font-size="12" lengthAdjust="spacing" textLength="115" x="67.5" y="313.1152">Select representative</text><text fill="#000000" font-family="sans-serif" font-size="12" lengthAdjust="spacing" textLength="112" x="67.5" y="328.209">group of participants</text><rect fill="#F1F1F1" height="50.1875" rx="12.5" ry="12.5" style="stroke:#181818;stroke-width:0.5;" width="150" x="51.5" y="778.4863"/><text fill="#000000" font-family="sans-serif" font-size="12" lengthAdjust="spacing" textLength="127" x="61.5" y="800.9434">Receive Interoperability</text><text fill="#000000" font-family="sans-serif" font-size="12" lengthAdjust="spacing" textLength="81" x="61.5" y="816.0371">Maturity Report</text><ellipse cx="126.5" cy="858.6738" fill="none" rx="10" ry="10" style="stroke:#222222;stroke-width:1.5;"/><line style="stroke:#222222;stroke-width:2.5;" x1="120.3128" x2="132.6872" y1="852.4866" y2="864.861"/><line style="stroke:#222222;stroke-width:2.5;" x1="132.6872" x2="120.3128" y1="852.4866" y2="864.861"/><line style="stroke:#000000;stroke-width:1.5;" x1="15" x2="15" y1="12.4551" y2="868.6738"/><line style="stroke:#000000;stroke-width:1.5;" x1="236" x2="236" y1="12.4551" y2="868.6738"/><rect fill="none" height="151.7969" style="stroke:#000000;stroke-width:1.5;" width="159.5" x="411" y="350.8457"/><path d="M476,350.8457 L476,361.4551 L466,371.4551 L411,371.4551 " fill="none" style="stroke:#000000;stroke-width:1.5;"/><text fill="#000000" font-family="sans-serif" font-size="14" lengthAdjust="spacing" textLength="55" x="414" y="366.3789">Interview</text><rect fill="#555555" height="6" rx="2.5" ry="2.5" style="stroke:#555555;stroke-width:1.0;" width="139.5" x="421" y="388.4551"/><rect fill="#F1F1F1" height="50.1875" rx="12.5" ry="12.5" style="stroke:#181818;stroke-width:0.5;" width="108" x="433" y="414.4551"/><text fill="#000000" font-family="sans-serif" font-size="12" lengthAdjust="spacing" textLength="85" x="443" y="436.9121">all interviewees</text><text fill="#000000" font-family="sans-serif" font-size="12" lengthAdjust="spacing" textLength="74" x="443" y="452.0059">take interview</text><line style="stroke:#000000;stroke-width:1.5;" x1="405" x2="405" y1="12.4551" y2="868.6738"/><rect fill="#F1F1F1" height="65.2813" rx="12.5" ry="12.5" style="stroke:#181818;stroke-width:0.5;" width="136" x="612" y="135.1895"/><text fill="#000000" font-family="sans-serif" font-size="12" lengthAdjust="spacing" textLength="94" x="625" y="157.6465">Determine SGAM</text><text fill="#000000" font-family="sans-serif" font-size="12" lengthAdjust="spacing" textLength="113" x="622" y="172.7402">Domains and Zones</text><text fill="#000000" font-family="sans-serif" font-size="12" lengthAdjust="spacing" textLength="81" x="622" y="187.834">of the usecase</text><rect fill="#F1F1F1" height="50.1875" rx="12.5" ry="12.5" style="stroke:#181818;stroke-width:0.5;" width="105" x="627.5" y="220.4707"/><text fill="#000000" font-family="sans-serif" font-size="12" lengthAdjust="spacing" textLength="66" x="640.5" y="242.9277">Request list</text><text fill="#000000" font-family="sans-serif" font-size="12" lengthAdjust="spacing" textLength="82" x="637.5" y="258.0215">of interviewees</text><rect fill="none" height="151.7969" style="stroke:#000000;stroke-width:1.5;" width="233" x="580.5" y="350.8457"/><path d="M645.5,350.8457 L645.5,361.4551 L635.5,371.4551 L580.5,371.4551 " fill="none" style="stroke:#000000;stroke-width:1.5;"/><text fill="#000000" font-family="sans-serif" font-size="14" lengthAdjust="spacing" textLength="55" x="583.5" y="366.3789">Interview</text><rect fill="#F1F1F1" height="50.1875" rx="12.5" ry="12.5" style="stroke:#181818;stroke-width:0.5;" width="87" x="704.5" y="414.4551"/><text fill="#000000" font-family="sans-serif" font-size="12" lengthAdjust="spacing" textLength="64" x="714.5" y="436.9121">interview all</text><text fill="#000000" font-family="sans-serif" font-size="12" lengthAdjust="spacing" textLength="64" x="714.5" y="452.0059">participants</text><rect fill="#555555" height="6" rx="2.5" ry="2.5" style="stroke:#555555;stroke-width:1.0;" width="213" x="590.5" y="484.6426"/><rect fill="#F1F1F1" height="65.2813" rx="12.5" ry="12.5" style="stroke:#181818;stroke-width:0.5;" width="130" x="615" y="522.6426"/><text fill="#000000" font-family="sans-serif" font-size="12" lengthAdjust="spacing" textLength="104" x="625" y="545.0996">Determine maturity</text><text fill="#000000" font-family="sans-serif" font-size="12" lengthAdjust="spacing" textLength="107" x="625" y="560.1934">based on individual</text><text fill="#000000" font-family="sans-serif" font-size="12" lengthAdjust="spacing" textLength="55" x="625" y="575.2871">interviews</text><rect fill="#F1F1F1" height="80.375" rx="12.5" ry="12.5" style="stroke:#181818;stroke-width:0.5;" width="136" x="612" y="607.9238"/><text fill="#000000" font-family="sans-serif" font-size="12" lengthAdjust="spacing" textLength="102" x="622" y="630.3809">Combine interview</text><text fill="#000000" font-family="sans-serif" font-size="12" lengthAdjust="spacing" textLength="110" x="622" y="645.4746">results to determine</text><text fill="#000000" font-family="sans-serif" font-size="12" lengthAdjust="spacing" textLength="98" x="622" y="660.5684">community based</text><text fill="#000000" font-family="sans-serif" font-size="12" lengthAdjust="spacing" textLength="116" x="622" y="675.6621">maturity assessment</text><rect fill="#F1F1F1" height="50.1875" rx="12.5" ry="12.5" style="stroke:#181818;stroke-width:0.5;" width="118" x="621" y="708.2988"/><text fill="#000000" font-family="sans-serif" font-size="12" lengthAdjust="spacing" textLength="81" x="631" y="730.7559">Create Maturity</text><text fill="#000000" font-family="sans-serif" font-size="12" lengthAdjust="spacing" textLength="98" x="631" y="745.8496">Assesment report</text><line style="stroke:#000000;stroke-width:1.5;" x1="574.5" x2="574.5" y1="12.4551" y2="868.6738"/><line style="stroke:#000000;stroke-width:1.5;" x1="817.5" x2="817.5" y1="12.4551" y2="868.6738"/><line style="stroke:#181818;stroke-width:1.0;" x1="126.5" x2="126.5" y1="60.0957" y2="80.0957"/><polygon fill="#181818" points="122.5,70.0957,126.5,80.0957,130.5,70.0957,126.5,74.0957" style="stroke:#181818;stroke-width:1.0;"/><line style="stroke:#181818;stroke-width:1.0;" x1="126.5" x2="126.5" y1="828.6738" y2="848.6738"/><polygon fill="#181818" points="122.5,838.6738,126.5,848.6738,130.5,838.6738,126.5,842.6738" style="stroke:#181818;stroke-width:1.0;"/><line style="stroke:#181818;stroke-width:1.0;" x1="487" x2="487" y1="394.4551" y2="414.4551"/><polygon fill="#181818" points="483,404.4551,487,414.4551,491,404.4551,487,408.4551" style="stroke:#181818;stroke-width:1.0;"/><line style="stroke:#181818;stroke-width:1.0;" x1="680" x2="680" y1="200.4707" y2="220.4707"/><polygon fill="#181818" points="676,210.4707,680,220.4707,684,210.4707,680,214.4707" style="stroke:#181818;stroke-width:1.0;"/><line style="stroke:#181818;stroke-width:1.0;" x1="748" x2="748" y1="464.6426" y2="484.6426"/><polygon fill="#181818" points="744,474.6426,748,484.6426,752,474.6426,748,478.6426" style="stroke:#181818;stroke-width:1.0;"/><line style="stroke:#181818;stroke-width:1.0;" x1="680" x2="680" y1="490.6426" y2="522.6426"/><polygon fill="#181818" points="676,512.6426,680,522.6426,684,512.6426,680,516.6426" style="stroke:#181818;stroke-width:1.0;"/><line style="stroke:#181818;stroke-width:1.0;" x1="680" x2="680" y1="587.9238" y2="607.9238"/><polygon fill="#181818" points="676,597.9238,680,607.9238,684,597.9238,680,601.9238" style="stroke:#181818;stroke-width:1.0;"/><line style="stroke:#181818;stroke-width:1.0;" x1="680" x2="680" y1="688.2988" y2="708.2988"/><polygon fill="#181818" points="676,698.2988,680,708.2988,684,698.2988,680,702.2988" style="stroke:#181818;stroke-width:1.0;"/><line style="stroke:#181818;stroke-width:1.0;" x1="126.5" x2="126.5" y1="115.1895" y2="120.1895"/><line style="stroke:#181818;stroke-width:1.0;" x1="126.5" x2="680" y1="120.1895" y2="120.1895"/><line style="stroke:#181818;stroke-width:1.0;" x1="680" x2="680" y1="120.1895" y2="135.1895"/><polygon fill="#181818" points="676,125.1895,680,135.1895,684,125.1895,680,129.1895" style="stroke:#181818;stroke-width:1.0;"/><line style="stroke:#181818;stroke-width:1.0;" x1="680" x2="680" y1="270.6582" y2="275.6582"/><line style="stroke:#181818;stroke-width:1.0;" x1="680" x2="126.5" y1="275.6582" y2="275.6582"/><line style="stroke:#181818;stroke-width:1.0;" x1="126.5" x2="126.5" y1="275.6582" y2="290.6582"/><polygon fill="#181818" points="122.5,280.6582,126.5,290.6582,130.5,280.6582,126.5,284.6582" style="stroke:#181818;stroke-width:1.0;"/><line style="stroke:#181818;stroke-width:1.0;" x1="553.5" x2="553.5" y1="394.4551" y2="398.4551"/><line style="stroke:#181818;stroke-width:1.0;" x1="553.5" x2="748" y1="398.4551" y2="398.4551"/><line style="stroke:#181818;stroke-width:1.0;" x1="748" x2="748" y1="398.4551" y2="414.4551"/><polygon fill="#181818" points="744,404.4551,748,414.4551,752,404.4551,748,408.4551" style="stroke:#181818;stroke-width:1.0;"/><line style="stroke:#181818;stroke-width:1.0;" x1="487" x2="487" y1="464.6426" y2="470.6426"/><line style="stroke:#181818;stroke-width:1.0;" x1="487" x2="622.5" y1="470.6426" y2="470.6426"/><line style="stroke:#181818;stroke-width:1.0;" x1="622.5" x2="622.5" y1="470.6426" y2="484.6426"/><polygon fill="#181818" points="618.5,474.6426,622.5,484.6426,626.5,474.6426,622.5,478.6426" style="stroke:#181818;stroke-width:1.0;"/><line style="stroke:#181818;stroke-width:1.0;" x1="126.5" x2="126.5" y1="340.8457" y2="352.1504"/><line style="stroke:#181818;stroke-width:1.0;" x1="126.5" x2="544.5" y1="352.1504" y2="352.1504"/><line style="stroke:#181818;stroke-width:1.0;" x1="544.5" x2="544.5" y1="352.1504" y2="388.4551"/><polygon fill="#181818" points="540.5,378.4551,544.5,388.4551,548.5,378.4551,544.5,382.4551" style="stroke:#181818;stroke-width:1.0;"/><line style="stroke:#181818;stroke-width:1.0;" x1="680" x2="680" y1="758.4863" y2="763.4863"/><line style="stroke:#181818;stroke-width:1.0;" x1="680" x2="126.5" y1="763.4863" y2="763.4863"/><line style="stroke:#181818;stroke-width:1.0;" x1="126.5" x2="126.5" y1="763.4863" y2="778.4863"/><polygon fill="#181818" points="122.5,768.4863,126.5,778.4863,130.5,768.4863,126.5,772.4863" style="stroke:#181818;stroke-width:1.0;"/><text fill="#000000" font-family="sans-serif" font-size="18" lengthAdjust="spacing" textLength="211" x="20" y="31.1406">Interoperability Community</text><text fill="#000000" font-family="sans-serif" font-size="18" lengthAdjust="spacing" textLength="159" x="241" y="31.1406">Community Memebr</text><text fill="#000000" font-family="sans-serif" font-size="18" lengthAdjust="spacing" textLength="91" x="444.25" y="31.1406">Interviewee</text><text fill="#000000" font-family="sans-serif" font-size="18" lengthAdjust="spacing" textLength="93" x="649.5" y="31.1406">Researcher</text><!--MD5=[a1c5fcad7c09bd1d7dd276744fa84ffe]
@startuml Assess Maturity Process


|Interoperability Community|
|Community Memebr|
|Interviewee|
|Researcher|
|Interoperability Community|
start
: request maturity assessment ; 

|Researcher|

: Determine SGAM \nDomains and Zones \nof the usecase ;
: Request list \nof interviewees ;

|Interoperability Community|
:Select representative \ngroup of participants; 

group Interview 
    |Interviewee|
    fork
    :all interviewees \ntake interview;
    fork again
    |Researcher|
    :interview all \nparticipants;
    end fork

end group 

:Determine maturity\nbased on individual \ninterviews;
:Combine interview \nresults to determine \ncommunity based \nmaturity assessment;
:Create Maturity\nAssesment report;

|Interoperability Community|
:Receive Interoperability \nMaturity Report;


end
@enduml

PlantUML version 1.2022.7(Mon Aug 22 19:01:30 CEST 2022)
(GPL source distribution)
Java Runtime: OpenJDK Runtime Environment
JVM: OpenJDK 64-Bit Server VM
Default Encoding: Cp1252
Language: en
Country: US
--></g></svg>