<?xml version="1.0" encoding="UTF-8" standalone="no"?><svg xmlns="http://www.w3.org/2000/svg" xmlns:xlink="http://www.w3.org/1999/xlink" contentStyleType="text/css" height="1057px" preserveAspectRatio="none" style="width:651px;height:1057px;background:#FFFFFF;" version="1.1" viewBox="0 0 651 1057" width="651px" zoomAndPan="magnify"><defs/><g><polygon fill="none" points="78,114.0957,188,114.0957,195,137.7051,279,137.7051,279,276.8926,78,276.8926,78,114.0957" style="stroke:#000000;stroke-width:1.5;"/><line style="stroke:#000000;stroke-width:1.5;" x1="78" x2="195" y1="137.7051" y2="137.7051"/><text fill="#000000" font-family="sans-serif" font-size="14" lengthAdjust="spacing" textLength="104" x="82" y="130.6289">explain-interview</text><rect fill="#F1F1F1" height="35.0938" rx="12.5" ry="12.5" style="stroke:#181818;stroke-width:0.5;" width="176" x="90.5" y="151.7051"/><text fill="#000000" font-family="sans-serif" font-size="12" lengthAdjust="spacing" textLength="156" x="100.5" y="174.1621">Explain interviewing process</text><rect fill="#F1F1F1" height="35.0938" rx="12.5" ry="12.5" style="stroke:#181818;stroke-width:0.5;" width="181" x="88" y="221.7988"/><text fill="#000000" font-family="sans-serif" font-size="12" lengthAdjust="spacing" textLength="161" x="98" y="244.2559">Explain scope of the interview</text><polygon fill="#F1F1F1" points="178.5,80.0957,190.5,92.0957,178.5,104.0957,166.5,92.0957,178.5,80.0957" style="stroke:#181818;stroke-width:0.5;"/><rect fill="#F1F1F1" height="35.0938" rx="12.5" ry="12.5" style="stroke:#181818;stroke-width:0.5;" width="119" x="285" y="385.9863"/><text fill="#000000" font-family="sans-serif" font-size="12" lengthAdjust="spacing" textLength="99" x="295" y="408.4434">Answer questions</text><rect fill="#F1F1F1" height="65.2813" rx="12.5" ry="12.5" style="stroke:#181818;stroke-width:0.5;" width="197" x="80" y="495.0801"/><text fill="#000000" font-family="sans-serif" font-size="12" lengthAdjust="spacing" textLength="113" x="90" y="517.5371">Request permission</text><text fill="#000000" font-family="sans-serif" font-size="12" lengthAdjust="spacing" textLength="171" x="93" y="532.6309">for privacy sensitive information</text><text fill="#000000" font-family="sans-serif" font-size="12" lengthAdjust="spacing" textLength="158" x="93" y="547.7246">to be used for future analysis</text><polygon fill="#F1F1F1" points="132.5,665.6426,224.5,665.6426,236.5,677.6426,224.5,689.6426,132.5,689.6426,120.5,677.6426,132.5,665.6426" style="stroke:#181818;stroke-width:0.5;"/><text fill="#000000" font-family="sans-serif" font-size="11" lengthAdjust="spacing" textLength="92" x="132.5" y="682.1436">permission granted</text><text fill="#000000" font-family="sans-serif" font-size="11" lengthAdjust="spacing" textLength="18" x="102.5" y="675.2256">yes</text><text fill="#000000" font-family="sans-serif" font-size="11" lengthAdjust="spacing" textLength="12" x="236.5" y="675.2256">no</text><rect fill="#F1F1F1" height="50.1875" rx="12.5" ry="12.5" style="stroke:#181818;stroke-width:0.5;" width="140" x="21" y="699.6426"/><text fill="#000000" font-family="sans-serif" font-size="12" lengthAdjust="spacing" textLength="106" x="31" y="722.0996">Record permission</text><text fill="#000000" font-family="sans-serif" font-size="12" lengthAdjust="spacing" textLength="120" x="31" y="737.1934">in metadata database</text><rect fill="#F1F1F1" height="65.2813" rx="12.5" ry="12.5" style="stroke:#181818;stroke-width:0.5;" width="127" x="27.5" y="769.8301"/><text fill="#000000" font-family="sans-serif" font-size="12" lengthAdjust="spacing" textLength="92" x="37.5" y="792.2871">Record personal</text><text fill="#000000" font-family="sans-serif" font-size="12" lengthAdjust="spacing" textLength="95" x="37.5" y="807.3809">information to the</text><text fill="#000000" font-family="sans-serif" font-size="12" lengthAdjust="spacing" textLength="107" x="37.5" y="822.4746">metadata database</text><rect fill="#F1F1F1" height="50.1875" rx="12.5" ry="12.5" style="stroke:#181818;stroke-width:0.5;" width="170" x="181" y="699.6426"/><text fill="#000000" font-family="sans-serif" font-size="12" lengthAdjust="spacing" textLength="147" x="191" y="722.0996">Record denied permission</text><text fill="#000000" font-family="sans-serif" font-size="12" lengthAdjust="spacing" textLength="120" x="191" y="737.1934">in metadata database</text><polygon fill="#F1F1F1" points="178.5,841.1113,190.5,853.1113,178.5,865.1113,166.5,853.1113,178.5,841.1113" style="stroke:#181818;stroke-width:0.5;"/><rect fill="#F1F1F1" height="50.1875" rx="12.5" ry="12.5" style="stroke:#181818;stroke-width:0.5;" width="128" x="114.5" y="885.1113"/><text fill="#000000" font-family="sans-serif" font-size="12" lengthAdjust="spacing" textLength="105" x="124.5" y="907.5684">Enter Metadata into</text><text fill="#000000" font-family="sans-serif" font-size="12" lengthAdjust="spacing" textLength="107" x="124.5" y="922.6621">metadata database</text><rect fill="#F1F1F1" height="50.1875" rx="12.5" ry="12.5" style="stroke:#181818;stroke-width:0.5;" width="174" x="91.5" y="955.2988"/><text fill="#000000" font-family="sans-serif" font-size="12" lengthAdjust="spacing" textLength="103" x="101.5" y="977.7559">Enter Questionaire</text><text fill="#000000" font-family="sans-serif" font-size="12" lengthAdjust="spacing" textLength="154" x="101.5" y="992.8496">into queestionaire database</text><ellipse cx="178.5" cy="1035.4863" fill="none" rx="10" ry="10" style="stroke:#222222;stroke-width:1.5;"/><line style="stroke:#222222;stroke-width:2.5;" x1="172.3128" x2="184.6872" y1="1029.2991" y2="1041.6735"/><line style="stroke:#222222;stroke-width:2.5;" x1="184.6872" x2="172.3128" y1="1029.2991" y2="1041.6735"/><line style="stroke:#000000;stroke-width:1.5;" x1="15" x2="15" y1="12.4551" y2="1045.4863"/><ellipse cx="512.5" cy="50.0957" fill="#222222" rx="10" ry="10" style="stroke:#222222;stroke-width:1.0;"/><polygon fill="#F1F1F1" points="478.5,296.8926,546.5,296.8926,558.5,308.8926,546.5,320.8926,478.5,320.8926,466.5,308.8926,478.5,296.8926" style="stroke:#181818;stroke-width:0.5;"/><text fill="#000000" font-family="sans-serif" font-size="11" lengthAdjust="spacing" textLength="68" x="478.5" y="313.3936">any questions</text><text fill="#000000" font-family="sans-serif" font-size="11" lengthAdjust="spacing" textLength="18" x="558.5" y="306.4756">yes</text><rect fill="#F1F1F1" height="35.0938" rx="12.5" ry="12.5" style="stroke:#181818;stroke-width:0.5;" width="133" x="446" y="340.8926"/><text fill="#000000" font-family="sans-serif" font-size="12" lengthAdjust="spacing" textLength="113" x="456" y="363.3496">answer questionaire</text><polygon fill="#F1F1F1" points="442,451.0801,583,451.0801,595,463.0801,583,475.0801,442,475.0801,430,463.0801,442,451.0801" style="stroke:#181818;stroke-width:0.5;"/><text fill="#000000" font-family="sans-serif" font-size="11" lengthAdjust="spacing" textLength="141" x="442" y="467.5811">Question about questionaire?</text><text fill="#000000" font-family="sans-serif" font-size="11" lengthAdjust="spacing" textLength="18" x="595" y="460.6631">yes</text><rect fill="#F1F1F1" height="65.2813" rx="12.5" ry="12.5" style="stroke:#181818;stroke-width:0.5;" width="197" x="414" y="580.3613"/><text fill="#000000" font-family="sans-serif" font-size="12" lengthAdjust="spacing" textLength="139" x="424" y="602.8184">Grant or deny permission</text><text fill="#000000" font-family="sans-serif" font-size="12" lengthAdjust="spacing" textLength="171" x="427" y="617.9121">for privacy sensitive information</text><text fill="#000000" font-family="sans-serif" font-size="12" lengthAdjust="spacing" textLength="158" x="427" y="633.0059">to be used for future analysis</text><line style="stroke:#000000;stroke-width:1.5;" x1="408" x2="408" y1="12.4551" y2="1045.4863"/><line style="stroke:#000000;stroke-width:1.5;" x1="618" x2="618" y1="12.4551" y2="1045.4863"/><line style="stroke:#181818;stroke-width:1.0;" x1="178.5" x2="178.5" y1="186.7988" y2="221.7988"/><polygon fill="#181818" points="174.5,211.7988,178.5,221.7988,182.5,211.7988,178.5,215.7988" style="stroke:#181818;stroke-width:1.0;"/><line style="stroke:#181818;stroke-width:1.0;" x1="178.5" x2="178.5" y1="104.0957" y2="151.7051"/><polygon fill="#181818" points="174.5,141.7051,178.5,151.7051,182.5,141.7051,178.5,145.7051" style="stroke:#181818;stroke-width:1.0;"/><line style="stroke:#181818;stroke-width:1.0;" x1="91" x2="91" y1="749.8301" y2="769.8301"/><polygon fill="#181818" points="87,759.8301,91,769.8301,95,759.8301,91,763.8301" style="stroke:#181818;stroke-width:1.0;"/><line style="stroke:#181818;stroke-width:1.0;" x1="120.5" x2="91" y1="677.6426" y2="677.6426"/><line style="stroke:#181818;stroke-width:1.0;" x1="91" x2="91" y1="677.6426" y2="699.6426"/><polygon fill="#181818" points="87,689.6426,91,699.6426,95,689.6426,91,693.6426" style="stroke:#181818;stroke-width:1.0;"/><line style="stroke:#181818;stroke-width:1.0;" x1="236.5" x2="266" y1="677.6426" y2="677.6426"/><line style="stroke:#181818;stroke-width:1.0;" x1="266" x2="266" y1="677.6426" y2="699.6426"/><polygon fill="#181818" points="262,689.6426,266,699.6426,270,689.6426,266,693.6426" style="stroke:#181818;stroke-width:1.0;"/><line style="stroke:#181818;stroke-width:1.0;" x1="91" x2="91" y1="835.1113" y2="853.1113"/><line style="stroke:#181818;stroke-width:1.0;" x1="91" x2="166.5" y1="853.1113" y2="853.1113"/><polygon fill="#181818" points="156.5,849.1113,166.5,853.1113,156.5,857.1113,160.5,853.1113" style="stroke:#181818;stroke-width:1.0;"/><line style="stroke:#181818;stroke-width:1.0;" x1="266" x2="266" y1="749.8301" y2="853.1113"/><line style="stroke:#181818;stroke-width:1.0;" x1="266" x2="190.5" y1="853.1113" y2="853.1113"/><polygon fill="#181818" points="200.5,849.1113,190.5,853.1113,200.5,857.1113,196.5,853.1113" style="stroke:#181818;stroke-width:1.0;"/><line style="stroke:#181818;stroke-width:1.0;" x1="178.5" x2="178.5" y1="865.1113" y2="885.1113"/><polygon fill="#181818" points="174.5,875.1113,178.5,885.1113,182.5,875.1113,178.5,879.1113" style="stroke:#181818;stroke-width:1.0;"/><line style="stroke:#181818;stroke-width:1.0;" x1="178.5" x2="178.5" y1="935.2988" y2="955.2988"/><polygon fill="#181818" points="174.5,945.2988,178.5,955.2988,182.5,945.2988,178.5,949.2988" style="stroke:#181818;stroke-width:1.0;"/><line style="stroke:#181818;stroke-width:1.0;" x1="178.5" x2="178.5" y1="1005.4863" y2="1025.4863"/><polygon fill="#181818" points="174.5,1015.4863,178.5,1025.4863,182.5,1015.4863,178.5,1019.4863" style="stroke:#181818;stroke-width:1.0;"/><line style="stroke:#181818;stroke-width:1.0;" x1="512.5" x2="512.5" y1="375.9863" y2="451.0801"/><polygon fill="#181818" points="508.5,441.0801,512.5,451.0801,516.5,441.0801,512.5,445.0801" style="stroke:#181818;stroke-width:1.0;"/><line style="stroke:#181818;stroke-width:1.0;" x1="512.5" x2="512.5" y1="320.8926" y2="340.8926"/><polygon fill="#181818" points="508.5,330.8926,512.5,340.8926,516.5,330.8926,512.5,334.8926" style="stroke:#181818;stroke-width:1.0;"/><line style="stroke:#181818;stroke-width:1.0;" x1="558.5" x2="625" y1="308.8926" y2="308.8926"/><polygon fill="#181818" points="621,205.4941,625,195.4941,629,205.4941,625,201.4941" style="stroke:#181818;stroke-width:1.0;"/><line style="stroke:#181818;stroke-width:1.0;" x1="625" x2="625" y1="92.0957" y2="308.8926"/><line style="stroke:#181818;stroke-width:1.0;" x1="625" x2="190.5" y1="92.0957" y2="92.0957"/><polygon fill="#181818" points="200.5,88.0957,190.5,92.0957,200.5,96.0957,196.5,92.0957" style="stroke:#181818;stroke-width:1.0;"/><line style="stroke:#181818;stroke-width:1.0;" x1="178.5" x2="178.5" y1="256.8926" y2="281.8926"/><line style="stroke:#181818;stroke-width:1.0;" x1="178.5" x2="512.5" y1="281.8926" y2="281.8926"/><line style="stroke:#181818;stroke-width:1.0;" x1="512.5" x2="512.5" y1="281.8926" y2="296.8926"/><polygon fill="#181818" points="508.5,286.8926,512.5,296.8926,516.5,286.8926,512.5,290.8926" style="stroke:#181818;stroke-width:1.0;"/><line style="stroke:#181818;stroke-width:1.0;" x1="512.5" x2="512.5" y1="60.0957" y2="65.0957"/><line style="stroke:#181818;stroke-width:1.0;" x1="512.5" x2="178.5" y1="65.0957" y2="65.0957"/><line style="stroke:#181818;stroke-width:1.0;" x1="178.5" x2="178.5" y1="65.0957" y2="80.0957"/><polygon fill="#181818" points="174.5,70.0957,178.5,80.0957,182.5,70.0957,178.5,74.0957" style="stroke:#181818;stroke-width:1.0;"/><line style="stroke:#181818;stroke-width:1.0;" x1="595" x2="344.5" y1="463.0801" y2="463.0801"/><line style="stroke:#181818;stroke-width:1.0;" x1="344.5" x2="344.5" y1="421.0801" y2="463.0801"/><polygon fill="#181818" points="340.5,431.0801,344.5,421.0801,348.5,431.0801,344.5,427.0801" style="stroke:#181818;stroke-width:1.0;"/><line style="stroke:#181818;stroke-width:1.0;" x1="344.5" x2="344.5" y1="358.4395" y2="385.9863"/><line style="stroke:#181818;stroke-width:1.0;" x1="344.5" x2="446" y1="358.4395" y2="358.4395"/><polygon fill="#181818" points="436,354.4395,446,358.4395,436,362.4395,440,358.4395" style="stroke:#181818;stroke-width:1.0;"/><line style="stroke:#181818;stroke-width:1.0;" x1="512.5" x2="512.5" y1="475.0801" y2="480.0801"/><line style="stroke:#181818;stroke-width:1.0;" x1="512.5" x2="178.5" y1="480.0801" y2="480.0801"/><line style="stroke:#181818;stroke-width:1.0;" x1="178.5" x2="178.5" y1="480.0801" y2="495.0801"/><polygon fill="#181818" points="174.5,485.0801,178.5,495.0801,182.5,485.0801,178.5,489.0801" style="stroke:#181818;stroke-width:1.0;"/><line style="stroke:#181818;stroke-width:1.0;" x1="178.5" x2="178.5" y1="560.3613" y2="565.3613"/><line style="stroke:#181818;stroke-width:1.0;" x1="178.5" x2="512.5" y1="565.3613" y2="565.3613"/><line style="stroke:#181818;stroke-width:1.0;" x1="512.5" x2="512.5" y1="565.3613" y2="580.3613"/><polygon fill="#181818" points="508.5,570.3613,512.5,580.3613,516.5,570.3613,512.5,574.3613" style="stroke:#181818;stroke-width:1.0;"/><line style="stroke:#181818;stroke-width:1.0;" x1="512.5" x2="512.5" y1="645.6426" y2="650.6426"/><line style="stroke:#181818;stroke-width:1.0;" x1="512.5" x2="178.5" y1="650.6426" y2="650.6426"/><line style="stroke:#181818;stroke-width:1.0;" x1="178.5" x2="178.5" y1="650.6426" y2="665.6426"/><polygon fill="#181818" points="174.5,655.6426,178.5,665.6426,182.5,655.6426,178.5,659.6426" style="stroke:#181818;stroke-width:1.0;"/><text fill="#000000" font-family="sans-serif" font-size="18" lengthAdjust="spacing" textLength="93" x="165" y="31.1406">Researcher</text><text fill="#000000" font-family="sans-serif" font-size="18" lengthAdjust="spacing" textLength="91" x="467.5" y="31.1406">Interviewee</text><!--MD5=[742cc45963df8eaa0b07c599f8305434]
@startuml Interviewing Process

|Researcher|
|Interviewee|
start
|Researcher|

repeat
package explain-interview {
:Explain interviewing process;
:Explain scope of the interview;
}
|Interviewee|
repeat while (any questions) is (yes)

repeat :answer questionaire;
|Researcher|
backward :Answer questions;

|Interviewee|
repeat while (Question about questionaire?) is (yes) 

|Researcher|

:Request permission \n for privacy sensitive information \n to be used for future analysis;

|Interviewee|
:Grant or deny permission \n for privacy sensitive information \n to be used for future analysis;

|Researcher|

if (permission granted) then (yes)
:Record permission \nin metadata database;
:Record personal \ninformation to the \nmetadata database;
else (no)
:Record denied permission \nin metadata database;
endif

:Enter Metadata into \nmetadata database;
:Enter Questionaire \ninto queestionaire database;







end
@enduml

PlantUML version 1.2022.7(Mon Aug 22 19:01:30 CEST 2022)
(GPL source distribution)
Java Runtime: OpenJDK Runtime Environment
JVM: OpenJDK 64-Bit Server VM
Default Encoding: Cp1252
Language: en
Country: US
--></g></svg>